<?xml version="1.0" encoding="UTF-8"?>
<svg width="42px" height="69px" viewBox="0 0 42 69" version="1.1" xmlns="http://www.w3.org/2000/svg" xmlns:xlink="http://www.w3.org/1999/xlink">
    <!-- Generator: Sketch 46.2 (44496) - http://www.bohemiancoding.com/sketch -->
    <title>location icon</title>
    <desc>Created with Sketch.</desc>
    <defs></defs>
    <g id="Page-1" stroke="none" stroke-width="1" fill="none" fill-rule="evenodd">
        <g id="Desktop-Copy" transform="translate(-619.000000, -416.000000)" fill-rule="nonzero" fill="#FFFFFF">
            <g id="location-icon" transform="translate(619.000000, 416.000000)">
                <path d="M39.4711154,20.976 C39.4711154,31.0957326 31.2068077,39.3083372 21.0177692,39.3083372 C10.8255,39.3083372 2.562,31.0965349 2.562,20.976 C2.562,10.8522558 10.8246923,2.64045349 21.0177692,2.64045349 C31.2068077,2.64045349 39.4711154,10.8514535 39.4711154,20.976 L39.4711154,20.976 Z M2.3415,29.7526395 L21.0177692,68.9518605 L39.6940385,29.7526395 C44.5765385,19.5093488 40.1705769,7.27388372 29.8595769,2.42061628 C19.5461538,-2.43024419 7.224,1.94644186 2.3415,12.1953488 C-0.312576923,17.7530581 -0.312576923,24.1981395 2.3415,29.7526395 Z" id="Shape"></path>
                <path d="M31.3392692,32.3176744 L26.2928077,27.1555116 L25.5182308,27.9040814 C25.2799615,28.1335465 24.8979231,28.1311395 24.6693462,27.8936512 C24.4310769,27.6569651 24.4456154,27.2774651 24.6838846,27.0439884 L25.3655769,26.3933023 L9.53076923,10.1983605 C9.24484615,9.90711628 9.2505,9.4465814 9.54773077,9.16255814 C9.83446154,8.87853488 10.3077692,8.88495349 10.5936923,9.177 L26.4252692,25.3695349 L27.1174615,24.699593 C27.3557308,24.4693256 27.7361538,24.4765465 27.9615,24.7140349 C28.1965385,24.9507209 28.1900769,25.3294186 27.9518077,25.5604884 L27.1643077,26.3243023 L32.2059231,31.4840581 C32.4345,31.7207442 32.4345,32.0994419 32.1962308,32.3305116 C31.9587692,32.5583721 31.5775385,32.5543605 31.3392692,32.3176744 Z" id="Shape"></path>
                <path d="M22.3868077,20.5828605 L32.5378846,10.1983605 C32.8246154,9.90711628 32.8173462,9.4465814 32.5209231,9.16255814 C32.235,8.87853488 31.7608846,8.88495349 31.4749615,9.177 L21.3586154,19.527 L22.3868077,20.5828605 Z" id="Shape"></path>
                <path d="M19.6818462,21.2399651 L15.6441923,25.3687326 L14.9528077,24.6987907 C14.7145385,24.4685233 14.3325,24.4757442 14.1071538,24.7132326 C13.8721154,24.9499186 13.8801923,25.3286163 14.1184615,25.559686 L14.9051538,26.3235 L9.86273077,31.4832558 C9.63415385,31.7199419 9.63415385,32.0986395 9.87323077,32.3297093 C10.1123077,32.5591744 10.4935385,32.5551628 10.731,32.3184767 L15.7782692,27.156314 L16.5512308,27.9048837 C16.7895,28.1343488 17.1715385,28.1319419 17.4033462,27.8944535 C17.6383846,27.6577674 17.6246538,27.2782674 17.3863846,27.0447907 L16.7119615,26.3941047 L20.7124615,22.2950233 L19.6818462,21.2399651 Z" id="Shape"></path>
            </g>
        </g>
    </g>
</svg>