<?xml version="1.0" encoding="UTF-8"?>
<svg width="77px" height="87px" viewBox="0 0 77 87" version="1.1" xmlns="http://www.w3.org/2000/svg" xmlns:xlink="http://www.w3.org/1999/xlink">
    <!-- Generator: Sketch 46.2 (44496) - http://www.bohemiancoding.com/sketch -->
    <title>ic_local_library</title>
    <desc>Created with Sketch.</desc>
    <defs></defs>
    <g id="Page-1" stroke="none" stroke-width="1" fill="none" fill-rule="evenodd">
        <g id="new-home" transform="translate(-676.000000, -791.000000)">
            <g id="ic_local_library" transform="translate(664.000000, 783.000000)">
                <g id="Icon-24px">
                    <polygon id="Shape" points="0 0 101 0 101 101 0 101"></polygon>
                    <path d="M50.5,48.60625 C40.5683333,39.3479167 27.27,33.6666667 12.625,33.6666667 L12.625,79.9583333 C27.27,79.9583333 40.5683333,85.6395833 50.5,94.8979167 C60.4316667,85.6816667 73.73,79.9583333 88.375,79.9583333 L88.375,33.6666667 C73.73,33.6666667 60.4316667,39.3479167 50.5,48.60625 L50.5,48.60625 Z M50.5,33.6666667 C57.4858333,33.6666667 63.125,28.0275 63.125,21.0416667 C63.125,14.0558333 57.4858333,8.41666667 50.5,8.41666667 C43.5141667,8.41666667 37.875,14.0558333 37.875,21.0416667 C37.875,28.0275 43.5141667,33.6666667 50.5,33.6666667 L50.5,33.6666667 Z" id="Shape" fill="#000000"></path>
                </g>
            </g>
        </g>
    </g>
</svg>